<?xml version="1.0" standalone="no"?><!DOCTYPE svg PUBLIC "-//W3C//DTD SVG 1.1//EN" "http://www.w3.org/Graphics/SVG/1.1/DTD/svg11.dtd"><svg t="1690810998159" class="icon" viewBox="0 0 1365 1024" version="1.1" xmlns="http://www.w3.org/2000/svg" p-id="1592" xmlns:xlink="http://www.w3.org/1999/xlink" width="266.6015625" height="200"><path d="M802.284145 1023.945976h-216.675687a45.600647 45.600647 0 0 1-20.912398-87.134994l116.179992-59.832697a30.787698 30.787698 0 0 1 29.044999 0l116.179992 59.832697a45.600647 45.600647 0 0 1-20.912398 87.134994z m-151.033991-61.575396h85.392295l-42.696147-22.074198z" fill="#0E4F53" p-id="1593"></path><path d="M333.788324 636.4857a30.787698 30.787698 0 0 1-14.232049-58.089996 775.501452 775.501452 0 0 1 374.680477-92.363094 955.87089 955.87089 0 0 1 360.448427 87.134994 30.816743 30.816743 0 1 1-24.978698 56.347297 893.424144 893.424144 0 0 0-336.341079-81.906895 716.830555 716.830555 0 0 0-346.216379 85.392295 30.787698 30.787698 0 0 1-13.360699 3.485399z" fill="#9B4537" p-id="1594"></path><path d="M693.365402 936.810982a30.787698 30.787698 0 0 1-19.169699-6.68035L11.679294 400.640315a30.787698 30.787698 0 0 1-6.68035-40.953447A813.259949 813.259949 0 0 1 693.365402 0.10979a823.135249 823.135249 0 0 1 665.711358 326.75623 30.787698 30.787698 0 0 1-4.6472 41.534347L713.6969 928.387932a30.787698 30.787698 0 0 1-20.331498 8.42305zM72.38334 370.143067l620.110712 493.764969 599.779212-523.100417a764.464352 764.464352 0 0 0-598.907862-279.122433A765.626152 765.626152 0 0 0 72.38334 370.143067z" fill="#0E4F53" p-id="1595"></path><path d="M691.332252 919.964883a30.787698 30.787698 0 0 1-27.302299-16.555649L277.150577 155.79098a31.078148 31.078148 0 0 1 54.895047-29.044998L691.332252 820.630989l355.510778-694.175457a31.078148 31.078148 0 1 1 54.895046 29.044998L718.925 903.118784a30.787698 30.787698 0 0 1-27.302298 16.846099z" fill="#0E4F53" p-id="1596"></path><path d="M691.332252 919.964883a30.787698 30.787698 0 0 1-30.787698-30.787698l2.033149-842.304948A30.787698 30.787698 0 0 1 693.365402 16.084539a30.787698 30.787698 0 0 1 30.787698 30.787698l-2.03315 842.304948a30.787698 30.787698 0 0 1-30.787698 30.787698z" fill="#0E4F53" p-id="1597"></path></svg>